<svg width="26" height="24" viewBox="0 0 26 24" fill="none" xmlns="http://www.w3.org/2000/svg">
<g clip-path="url(#clip0_2_1593)">
<path d="M25.4027 12.2245C25.4027 11.2413 25.3163 10.5238 25.1291 9.77966H12.9612V14.2176H20.1035C19.9596 15.3205 19.182 16.9815 17.4539 18.0976L17.4297 18.2462L21.277 20.9964L21.5435 21.0209C23.9915 18.9347 25.4027 15.8653 25.4027 12.2245Z" fill="#4285F4"/>
<path d="M12.9612 23.9176C16.4603 23.9176 19.3979 22.8545 21.5435 21.0209L17.454 18.0976C16.3596 18.8018 14.8908 19.2934 12.9612 19.2934C9.53406 19.2934 6.62531 17.2074 5.58841 14.324L5.43643 14.3359L1.43598 17.1927L1.38367 17.3269C3.51483 21.2334 7.89241 23.9176 12.9612 23.9176Z" fill="#34A853"/>
<path d="M5.58834 14.324C5.31475 13.5799 5.15641 12.7826 5.15641 11.9588C5.15641 11.1349 5.31475 10.3377 5.57395 9.5936L5.5667 9.43513L1.51612 6.53241L1.38359 6.59058C0.505238 8.21168 0.00123596 10.0321 0.00123596 11.9588C0.00123596 13.8855 0.505238 15.7058 1.38359 17.3269L5.58834 14.324Z" fill="#FBBC05"/>
<path d="M12.9612 4.62403C15.3948 4.62403 17.0363 5.59401 17.9723 6.40461L21.6299 3.10928C19.3836 1.1826 16.4603 0 12.9612 0C7.89241 0 3.51483 2.68406 1.38367 6.59056L5.57402 9.59359C6.62531 6.7102 9.53406 4.62403 12.9612 4.62403Z" fill="#EB4335"/>
</g>
<defs>
<clipPath id="clip0_2_1593">
<rect width="25.4161" height="24" fill="white"/>
</clipPath>
</defs>
</svg>
